<svg xmlns="http://www.w3.org/2000/svg" viewBox="0 0 320 70.52">
  <defs>
    <style>.a,.b{fill:none;stroke:#fff;stroke-width:2px;}.a{stroke-miterlimit:10;}.b{stroke-linejoin:bevel;}.c{fill:#fff;}.d{fill:#fff;opacity:0.4;}</style>
  </defs>
  <!-- Prism icon from refract-ds.ru -->
  <polygon class="a" points="32.11 69.38 1 52.63 1 17.38 32.11 1.13 62.5 17.38 62.5 52.63 32.11 69.38"/>
  <polyline class="a" points="1 17.38 13.27 26.63 51.68 26.63 62.5 17.38"/>
  <polygon class="b" points="62.5 52.63 51.31 26.63 32.11 1.13 12.91 26.63 1 52.63 32.11 58.63 62.5 52.63"/>
  <polyline class="a" points="51.31 26.63 32.11 58.63 12.91 26.63"/>
  <line class="a" x1="32.11" y1="69.38" x2="32.11" y2="58.63"/>
  <!-- REFRACT text -->
  <path class="c" d="M106.74,49.92,100,38.37H92.86V49.92h-4V19.76h12.07a9,9,0,0,1,6.64,2.76,9.13,9.13,0,0,1,1,11.94,9.23,9.23,0,0,1-4.48,3.4l7.11,12.07ZM92.86,23.51V34.75h8.06a5.05,5.05,0,0,0,3.79-1.64,5.56,5.56,0,0,0,1.59-4,5.39,5.39,0,0,0-1.59-4,5.05,5.05,0,0,0-3.79-1.64Z"/>
  <path class="c" d="M119.19,46.13h14v3.79h-18V19.76H133v3.79H119.19v9.26H131.9v3.75H119.19Z"/>
  <path class="c" d="M155.39,23.55H142v9.78h12.8v3.79H142v12.8h-4V19.76h17.37Z"/>
  <path class="c" d="M178.14,49.92l-6.77-11.55h-7.11V49.92h-4V19.76h12.07A9,9,0,0,1,179,22.51a9.13,9.13,0,0,1,1,11.94,9.23,9.23,0,0,1-4.48,3.4l7.11,12.07ZM164.27,23.51V34.75h8.06a5.05,5.05,0,0,0,3.79-1.64,5.56,5.56,0,0,0,1.59-4,5.39,5.39,0,0,0-1.59-4,5.05,5.05,0,0,0-3.79-1.64Z"/>
  <path class="c" d="M206.45,49.92,204,43.16H190.42L188,49.92H183.7l11.25-30.16h4.52l11.25,30.16ZM191.8,39.41h10.82l-5.43-14.87Z"/>
  <path class="c" d="M216.06,46a15.21,15.21,0,0,1-4.44-11.12A15.32,15.32,0,0,1,227.39,19.2a14.91,14.91,0,0,1,13,7.33l-3.49,2a10.62,10.62,0,0,0-9.52-5.47,11.36,11.36,0,0,0-11.81,11.76,11.35,11.35,0,0,0,11.81,11.72,10.66,10.66,0,0,0,9.52-5.43l3.49,2A14.06,14.06,0,0,1,235,48.5a15,15,0,0,1-7.63,2A15.26,15.26,0,0,1,216.06,46Z"/>
  <path class="c" d="M263.89,19.76v3.79H255V49.92h-4V23.55h-8.88V19.76Z"/>
  <!-- .AI suffix -->
  <text class="d" x="270" y="50" font-family="Inter, sans-serif" font-size="28" font-weight="500" letter-spacing="1">.AI</text>
</svg>
