<svg xmlns="http://www.w3.org/2000/svg" viewBox="0 0 520 300" fill="none">
  <g stroke="#ffffff" stroke-width="1.2" opacity="0.55">
    <path d="M42 74 h150 a4 4 0 0 1 4 4 v40 a4 4 0 0 1 -4 4 h-124 l-18 18 v-18 h-8 a4 4 0 0 1 -4 -4 v-40 a4 4 0 0 1 4 -4 z"/>
    <line x1="60" y1="92" x2="150" y2="92"/><line x1="60" y1="106" x2="126" y2="106"/>
  </g>
  <g stroke="#ffffff" stroke-width="1.2" opacity="0.4">
    <path d="M42 168 h124 a4 4 0 0 1 4 4 v34 a4 4 0 0 1 -4 4 h-98 l-18 16 v-16 h-8 a4 4 0 0 1 -4 -4 v-34 a4 4 0 0 1 4 -4 z"/>
    <line x1="60" y1="186" x2="140" y2="186"/><line x1="60" y1="198" x2="112" y2="198"/>
  </g>
  <g stroke="#7f77dd" stroke-width="1.1" opacity="0.85">
    <path d="M204 106 L224 124"/><path d="M204 190 L224 160"/>
  </g>
  <g transform="translate(221.73 97.29) scale(1.2683)" fill="none">
    <g stroke="#ffffff" stroke-width="1.262" stroke-miterlimit="10">
      <polygon points="32.11 69.38 1 52.63 1 17.38 32.11 1.13 62.5 17.38 62.5 52.63"/>
      <polyline points="1 17.38 13.27 26.63 51.68 26.63 62.5 17.38"/>
      <line x1="32.11" y1="69.38" x2="32.11" y2="58.63"/>
    </g>
    <g stroke="#9be1cb" stroke-width="0.907" stroke-linejoin="bevel" opacity="0.9">
      <polygon points="62.5 52.63 51.31 26.63 32.11 1.13 12.91 26.63 1 52.63 32.11 58.63"/>
      <polyline points="51.31 26.63 32.11 58.63 12.91 26.63"/>
    </g>
  </g>
  <g stroke="#9be1cb" stroke-width="1.2">
    <path d="M306 122 L348 100"/><path d="M340 96 L350 99 L346 108"/>
  </g>
  <g stroke="#7f77dd" stroke-width="1.2">
    <path d="M306 162 L348 190"/><path d="M340 191 L350 192 L347 182"/>
  </g>
  <g stroke="#9be1cb" stroke-width="1.3" opacity="0.95">
    <path d="M362 76 h116 a4 4 0 0 1 4 4 v40 a4 4 0 0 1 -4 4 h-116 a4 4 0 0 1 -4 -4 v-40 a4 4 0 0 1 4 -4 z"/>
    <line x1="378" y1="94" x2="452" y2="94" opacity="0.7"/><line x1="378" y1="108" x2="428" y2="108" opacity="0.7"/>
  </g>
  <g stroke="#ffffff" stroke-width="1.3" opacity="0.8">
    <circle cx="382" cy="188" r="13"/>
    <path d="M360 226 a22 22 0 0 1 44 0"/>
    <line x1="418" y1="182" x2="482" y2="182" opacity="0.5"/>
    <line x1="418" y1="196" x2="462" y2="196" opacity="0.5"/>
  </g>
</svg>